<?xml version="1.0" encoding="UTF-8"?>
<!DOCTYPE svg PUBLIC "-//W3C//DTD SVG 1.1//EN" "http://www.w3.org/Graphics/SVG/1.1/DTD/svg11.dtd">
<svg xmlns="http://www.w3.org/2000/svg" version="1.1" width="400px" height="373px" style="shape-rendering:geometricPrecision; text-rendering:geometricPrecision; image-rendering:optimizeQuality; fill-rule:evenodd; clip-rule:evenodd" xmlns:xlink="http://www.w3.org/1999/xlink">
<g><path style="opacity:1" fill="#fcfafb" d="M 110.5,34.5 C 194.303,41.7799 278.303,49.1132 362.5,56.5C 347.152,142.926 332.152,229.259 317.5,315.5C 317.067,318.166 316.567,320.832 316,323.5C 314.938,324.097 313.772,324.43 312.5,324.5C 233.884,317.602 154.884,310.769 75.5,304C 71.2036,303.924 67.2036,303.091 63.5,301.5C 63.3379,299.473 63.5045,297.473 64,295.5C 64.3826,294.944 64.8826,294.611 65.5,294.5C 88.6668,297.131 112,299.465 135.5,301.5C 170.771,304.747 206.104,307.747 241.5,310.5C 262.088,312.13 282.755,314.13 303.5,316.5C 305.753,315.747 307.587,314.414 309,312.5C 311.349,300.852 313.515,289.185 315.5,277.5C 318.42,261.062 321.42,244.562 324.5,228C 323.287,224.941 323.787,222.108 326,219.5C 330.786,187.772 336.286,156.438 342.5,125.5C 345.183,107.385 348.517,89.3852 352.5,71.5C 352.768,67.8101 351.435,64.9768 348.5,63C 316.248,59.9803 283.914,57.3136 251.5,55C 241.957,53.294 232.291,51.9607 222.5,51C 210.486,50.5751 198.486,49.9085 186.5,49C 183.922,47.1865 181.255,47.0198 178.5,48.5C 155.603,45.6487 132.603,43.3153 109.5,41.5C 109.298,39.0504 109.631,36.717 110.5,34.5 Z"/></g>
<g><path style="opacity:1" fill="#aeb8c0" d="M 111.5,26.5 C 118.554,28.0908 125.387,28.4241 132,27.5C 134.341,29.7724 137.008,30.1058 140,28.5C 143.641,28.7631 146.974,29.7631 150,31.5C 150.674,30.4216 151.674,29.7549 153,29.5C 161.676,30.8507 170.343,31.8507 179,32.5C 181.836,31.735 184.67,32.0683 187.5,33.5C 189.792,31.9756 191.792,32.3089 193.5,34.5C 195.386,34.0719 197.219,33.7386 199,33.5C 205.192,34.802 211.359,35.802 217.5,36.5C 219.929,36.5787 222.429,36.2453 225,35.5C 228.913,35.8775 232.58,36.8775 236,38.5C 243.078,38.427 249.911,38.427 256.5,38.5C 258.783,39.3209 261.116,39.9876 263.5,40.5C 269.133,40.681 274.8,40.681 280.5,40.5C 281.548,41.3829 282.715,42.0496 284,42.5C 289.492,42.5453 294.992,42.5453 300.5,42.5C 303.35,43.1034 306.184,43.77 309,44.5C 313.741,44.7118 318.574,44.7118 323.5,44.5C 325.709,45.1062 327.876,45.7728 330,46.5C 333.309,46.4813 336.642,46.1479 340,45.5C 344.254,46.0059 348.588,47.0059 353,48.5C 354.667,48.1667 356.333,47.8333 358,47.5C 361.825,48.2104 365.658,49.0437 369.5,50C 370.569,53.2988 372.903,56.1322 376.5,58.5C 380.5,63.5024 383.167,69.169 384.5,75.5C 382.571,79.4235 381.238,83.2568 380.5,87C 381.591,89.0639 381.758,91.2305 381,93.5C 378.515,105.779 376.182,118.113 374,130.5C 372.312,131.325 372.145,132.325 373.5,133.5C 372.926,135.059 372.26,136.559 371.5,138C 372.167,138.333 372.833,138.667 373.5,139C 370.894,150.444 368.227,162.111 365.5,174C 365.833,175.667 366.167,177.333 366.5,179C 366,179.5 365.5,180 365,180.5C 364.511,187.283 363.011,193.783 360.5,200C 360.721,201.799 361.054,203.632 361.5,205.5C 359.302,215.748 356.969,225.915 354.5,236C 354.5,239.333 354.5,242.667 354.5,246C 353.643,246.689 352.977,247.522 352.5,248.5C 352.5,251.167 352.5,253.833 352.5,256.5C 350.73,257.82 350.397,259.32 351.5,261C 349.71,267.852 348.043,274.685 346.5,281.5C 347.737,283.5 347.403,285.334 345.5,287C 345.957,287.414 346.291,287.914 346.5,288.5C 346.065,292.381 345.065,296.047 343.5,299.5C 343.931,300.293 344.265,301.127 344.5,302C 342.52,305.553 341.854,309.219 342.5,313C 340.793,317.993 339.46,323.159 338.5,328.5C 337.883,331.587 337.883,334.587 338.5,337.5C 336.052,341.423 335.052,345.423 335.5,349.5C 333.516,349.383 331.85,350.05 330.5,351.5C 327.744,351.218 324.911,351.218 322,351.5C 317.661,349.329 313.161,348.662 308.5,349.5C 299.521,348.279 290.521,347.279 281.5,346.5C 280.554,346.987 279.554,347.32 278.5,347.5C 273.806,345.994 268.972,344.994 264,344.5C 263.439,345.022 262.772,345.355 262,345.5C 254.93,344.738 247.93,343.738 241,342.5C 238.408,343.982 236.075,343.648 234,341.5C 230.882,342.748 227.882,342.414 225,340.5C 217.487,340.797 209.82,340.797 202,340.5C 197.662,340.097 193.495,339.097 189.5,337.5C 188.833,338.167 188.167,338.833 187.5,339.5C 182.062,338.035 176.562,337.035 171,336.5C 168.438,337.087 165.772,337.421 163,337.5C 157.117,336.673 151.45,335.339 146,333.5C 143.541,336.1 141.041,336.1 138.5,333.5C 132.306,333.594 126.139,333.594 120,333.5C 113.498,332.362 107.164,331.029 101,329.5C 97.7833,330.003 94.6166,330.336 91.5,330.5C 88.3233,328.944 85.1567,328.611 82,329.5C 74.4495,327.929 66.9495,326.929 59.5,326.5C 54.862,326.778 50.1954,326.778 45.5,326.5C 43.5564,324.009 42.8898,321.342 43.5,318.5C 49.0161,318.379 54.5161,318.379 60,318.5C 76.6224,320.563 93.289,322.563 110,324.5C 112.068,323.33 113.901,323.496 115.5,325C 139.581,325.736 163.581,327.403 187.5,330C 191.523,330.145 195.356,330.979 199,332.5C 199.561,331.978 200.228,331.645 201,331.5C 240.076,335.401 279.242,338.734 318.5,341.5C 321.565,342.818 324.731,342.818 328,341.5C 329.149,336.128 330.482,330.795 332,325.5C 337.117,290.821 343.117,256.487 350,222.5C 357.005,180.831 364.005,139.164 371,97.5C 373.732,88.7692 375.065,79.7692 375,70.5C 373.327,67.9989 371.493,65.6655 369.5,63.5C 354.396,144.508 339.896,225.508 326,306.5C 325.722,307.416 325.222,308.082 324.5,308.5C 324.565,308.062 324.399,307.728 324,307.5C 322.559,308.26 321.059,308.926 319.5,309.5C 318.831,311.631 318.165,313.631 317.5,315.5C 332.152,229.259 347.152,142.926 362.5,56.5C 278.303,49.1132 194.303,41.7799 110.5,34.5C 111.388,31.9455 111.721,29.2788 111.5,26.5 Z"/></g>
<g><path style="opacity:1" fill="#f6c4da" d="M 342.5,125.5 C 341.778,125.082 341.278,124.416 341,123.5C 340.25,124.126 339.416,124.626 338.5,125C 338.833,125.333 339.167,125.667 339.5,126C 334.621,126.111 334.288,127.278 338.5,129.5C 338.918,132.189 338.418,134.856 337,137.5C 334.979,136.764 333.479,137.597 332.5,140C 331.5,140.667 330.5,140.667 329.5,140C 331.287,138.179 332.62,136.012 333.5,133.5C 334.376,132.749 335.376,132.249 336.5,132C 336,131.5 335.5,131 335,130.5C 334.712,127.47 334.545,124.636 334.5,122C 337.751,120.902 340.417,118.902 342.5,116C 341.5,115.333 340.5,115.333 339.5,116C 336.429,118.308 333.095,120.141 329.5,121.5C 328.369,119.926 328.202,118.259 329,116.5C 329.333,117.5 329.667,118.5 330,119.5C 331,118.167 332,116.833 333,115.5C 333.691,117.891 334.691,117.891 336,115.5C 336.813,113.564 337.313,111.564 337.5,109.5C 336.5,109.5 335.5,109.5 334.5,109.5C 334.5,108.5 334.5,107.5 334.5,106.5C 332.61,106.297 331.11,106.963 330,108.5C 328.086,107.324 328.252,106.324 330.5,105.5C 328.516,104.294 326.516,104.294 324.5,105.5C 323.833,104.833 323.167,104.167 322.5,103.5C 323.121,105.998 322.455,108.332 320.5,110.5C 317.966,111.776 315.466,112.11 313,111.5C 312.535,112.931 311.701,114.097 310.5,115C 314.191,115.42 317.858,115.92 321.5,116.5C 321.281,115.325 321.614,114.325 322.5,113.5C 324.111,114.32 324.778,115.654 324.5,117.5C 323.041,117.433 321.708,117.766 320.5,118.5C 315.687,116.93 310.687,115.764 305.5,115C 301.86,112.891 299.86,109.724 299.5,105.5C 301.449,92.0664 308.949,87.3998 322,91.5C 329.53,89.1591 330.363,85.3257 324.5,80C 317.978,77.0254 311.311,76.692 304.5,79C 302.182,80.9927 299.516,82.1594 296.5,82.5C 296.649,83.552 296.483,84.552 296,85.5C 293.31,87.1935 291.31,89.5268 290,92.5C 287.617,100.424 287.117,108.424 288.5,116.5C 287.883,116.389 287.383,116.056 287,115.5C 286.667,113.167 286.333,110.833 286,108.5C 284.506,107.253 283.006,107.253 281.5,108.5C 284.076,109.883 283.742,110.717 280.5,111C 281.654,111.914 281.487,112.747 280,113.5C 279.667,112.833 279.333,112.167 279,111.5C 278.802,113.382 278.302,115.048 277.5,116.5C 278.686,106.779 280.186,97.1125 282,87.5C 282.667,83.1667 282.667,78.8333 282,74.5C 277.219,72.5112 273.219,73.5112 270,77.5C 269.624,83.3359 268.457,89.0026 266.5,94.5C 267.766,96.9724 267.766,99.3057 266.5,101.5C 263.313,97.9403 261.979,93.9403 262.5,89.5C 258.54,90.7779 255.54,90.7779 253.5,89.5C 252.571,88.3112 252.238,86.9778 252.5,85.5C 263.3,87.3028 265.3,83.8028 258.5,75C 251.484,70.1454 243.817,69.1454 235.5,72C 228.498,77.9809 226.665,85.1475 230,93.5C 233.667,96.5 237.333,99.5 241,102.5C 243.933,107.915 242.266,110.582 236,110.5C 233.181,110.007 230.681,108.84 228.5,107C 223.072,106.411 220.739,108.911 221.5,114.5C 220.279,113.972 219.113,113.305 218,112.5C 217.667,114.167 217.333,115.833 217,117.5C 215.887,116.289 214.72,116.289 213.5,117.5C 213.662,115.369 212.329,114.369 209.5,114.5C 214.139,110.584 217.305,105.584 219,99.5C 219.263,94.9945 220.263,90.6612 222,86.5C 222.499,81.1771 222.666,75.8437 222.5,70.5C 219.091,70.2493 215.758,70.5827 212.5,71.5C 211.684,73.2873 210.684,74.9539 209.5,76.5C 209.833,77.1667 210.167,77.8333 210.5,78.5C 209.77,81.1092 209.27,83.7759 209,86.5C 208.333,87.1667 207.667,87.8333 207,88.5C 206.843,94.4714 205.01,99.8047 201.5,104.5C 198.679,105.739 196.013,105.405 193.5,103.5C 191.971,101.038 190.971,98.3713 190.5,95.5C 191.219,89.7378 192.386,84.0712 194,78.5C 194.667,75.1667 194.667,71.8333 194,68.5C 190.906,67.4009 187.74,66.9009 184.5,67C 183.413,69.5667 182.413,72.0667 181.5,74.5C 181.5,73.1667 181.5,71.8333 181.5,70.5C 180.167,70.5 178.833,70.5 177.5,70.5C 177.519,68.9397 177.852,67.4397 178.5,66C 177.518,64.9456 176.351,64.4456 175,64.5C 174.517,63.552 174.351,62.552 174.5,61.5C 175.752,60.0322 177.752,59.0322 180.5,58.5C 180.2,55.7309 179.2,53.2309 177.5,51C 177.743,50.0979 178.077,49.2646 178.5,48.5C 181.255,47.0198 183.922,47.1865 186.5,49C 198.486,49.9085 210.486,50.5751 222.5,51C 232.291,51.9607 241.957,53.294 251.5,55C 283.914,57.3136 316.248,59.9803 348.5,63C 351.435,64.9768 352.768,67.8101 352.5,71.5C 348.517,89.3852 345.183,107.385 342.5,125.5 Z"/></g>
<g><path style="opacity:1" fill="#fefcfd" d="M 209.5,114.5 C 191.573,123.595 180.573,118.261 176.5,98.5C 176.922,90.1596 178.588,82.1596 181.5,74.5C 182.413,72.0667 183.413,69.5667 184.5,67C 187.74,66.9009 190.906,67.4009 194,68.5C 194.667,71.8333 194.667,75.1667 194,78.5C 192.386,84.0712 191.219,89.7378 190.5,95.5C 190.971,98.3713 191.971,101.038 193.5,103.5C 196.013,105.405 198.679,105.739 201.5,104.5C 205.01,99.8047 206.843,94.4714 207,88.5C 207.667,87.8333 208.333,87.1667 209,86.5C 209.27,83.7759 209.77,81.1092 210.5,78.5C 210.167,77.8333 209.833,77.1667 209.5,76.5C 210.684,74.9539 211.684,73.2873 212.5,71.5C 215.758,70.5827 219.091,70.2493 222.5,70.5C 222.666,75.8437 222.499,81.1771 222,86.5C 220.263,90.6612 219.263,94.9945 219,99.5C 217.305,105.584 214.139,110.584 209.5,114.5 Z"/></g>
<g><path style="opacity:1" fill="#fefcfd" d="M 252.5,85.5 C 248.866,82.8417 245.199,82.8417 241.5,85.5C 242.309,87.0709 242.643,88.7376 242.5,90.5C 244.308,90.4914 245.975,90.9914 247.5,92C 260.4,101.115 260.733,110.782 248.5,121C 242.928,122.351 237.262,122.851 231.5,122.5C 228.933,121.25 226.267,120.083 223.5,119C 222.418,117.67 221.751,116.17 221.5,114.5C 220.739,108.911 223.072,106.411 228.5,107C 230.681,108.84 233.181,110.007 236,110.5C 242.266,110.582 243.933,107.915 241,102.5C 237.333,99.5 233.667,96.5 230,93.5C 226.665,85.1475 228.498,77.9809 235.5,72C 243.817,69.1454 251.484,70.1454 258.5,75C 265.3,83.8028 263.3,87.3028 252.5,85.5 Z"/></g>
<g><path style="opacity:0.008" fill="#2db92c" d="M 54.5,71.5 C 55.525,71.8966 55.6917,72.5632 55,73.5C 54.5357,72.9056 54.369,72.2389 54.5,71.5 Z"/></g>
<g><path style="opacity:1" fill="#3b9d32" d="M 111.5,26.5 C 111.721,29.2788 111.388,31.9455 110.5,34.5C 109.631,36.717 109.298,39.0504 109.5,41.5C 103.15,80.042 96.1497,118.375 88.5,156.5C 88.4427,151.318 87.776,151.318 86.5,156.5C 85.3247,155.145 84.3247,155.312 83.5,157C 84.7112,157.893 84.7112,158.726 83.5,159.5C 81.8716,160.535 80.205,160.535 78.5,159.5C 77.713,157.896 76.3797,157.229 74.5,157.5C 74.7214,156.265 75.3881,155.265 76.5,154.5C 75.3112,153.571 73.9778,153.238 72.5,153.5C 71.5865,151.165 70.2532,148.999 68.5,147C 69.448,146.517 70.448,146.351 71.5,146.5C 72.2748,150.942 74.2748,151.942 77.5,149.5C 77.9483,151.465 78.9483,151.798 80.5,150.5C 81.229,148.024 81.8957,145.524 82.5,143C 81.5001,140.389 79.8334,139.889 77.5,141.5C 77.5086,139.692 77.0086,138.025 76,136.5C 75.4444,138.595 74.9444,138.762 74.5,137C 75.0556,135.989 75.7222,135.156 76.5,134.5C 76.8916,131.854 76.8916,129.354 76.5,127C 75.5,126.333 74.5,126.333 73.5,127C 72.9152,128.302 72.2485,129.469 71.5,130.5C 71.0525,126.276 72.7191,124.609 76.5,125.5C 77.2418,123.65 78.2418,122.984 79.5,123.5C 77.4363,121.022 75.4363,121.022 73.5,123.5C 72.3347,122.14 72.668,121.14 74.5,120.5C 78.4459,120.512 80.1126,118.512 79.5,114.5C 78.1667,114.5 76.8333,114.5 75.5,114.5C 75.9175,113.778 76.5842,113.278 77.5,113C 75.273,112.296 74.9397,111.129 76.5,109.5C 77.5,109.5 78.5,109.5 79.5,109.5C 81.0867,106.081 81.7533,102.415 81.5,98.5C 76.7984,98.5348 74.4651,100.868 74.5,105.5C 74.2914,104.078 73.7914,102.745 73,101.5C 72.6758,103.569 71.8425,103.902 70.5,102.5C 69.3044,102.846 69.3044,103.346 70.5,104C 69.552,104.483 68.552,104.649 67.5,104.5C 63.6757,104.21 60.3424,105.21 57.5,107.5C 56.8386,108.718 56.1719,110.051 55.5,111.5C 54.6919,111.192 54.0253,110.692 53.5,110C 54.8331,108.16 54.6665,107.66 53,108.5C 52.6924,107.692 52.1924,107.025 51.5,106.5C 50.4937,106.938 50.4937,107.604 51.5,108.5C 51.0431,109.298 50.3764,109.631 49.5,109.5C 49.1065,106.07 49.7732,102.904 51.5,100C 51.0563,98.4667 50.723,96.9667 50.5,95.5C 52.3845,94.8027 52.7178,93.8027 51.5,92.5C 52.8412,88.616 53.6745,84.616 54,80.5C 55.452,79.0929 55.2853,77.5929 53.5,76C 54.0253,75.3076 54.6919,74.8076 55.5,74.5C 57.1592,60.653 59.3258,46.653 62,32.5C 63.6016,30.7373 64.1016,28.904 63.5,27C 66.8361,24.3894 70.6694,22.8894 75,22.5C 76.2247,22.8623 77.3914,23.3623 78.5,24C 89.8698,24.1737 100.87,25.007 111.5,26.5 Z"/></g>
<g><path style="opacity:1" fill="#add090" d="M 81.5,65.5 C 83.9775,65.0508 85.9775,65.7175 87.5,67.5C 86.8847,70.0393 86.2181,72.5393 85.5,75C 83.0507,75.7754 81.384,74.942 80.5,72.5C 81.3742,70.2534 81.7076,67.9201 81.5,65.5 Z"/></g>
<g><path style="opacity:1" fill="#f3ed4e" d="M 67.5,59.5 C 75.0853,59.8958 77.5853,63.5625 75,70.5C 71.0044,74.7883 67.5044,74.455 64.5,69.5C 64.952,65.9177 65.952,62.5843 67.5,59.5 Z"/></g>
<g><path style="opacity:1" fill="#b2d293" d="M 85.5,55.5 C 87.9754,56.6874 88.9754,58.6874 88.5,61.5C 87.1667,61.5 85.8333,61.5 84.5,61.5C 84.3253,59.3792 84.6586,57.3792 85.5,55.5 Z"/></g>
<g><path style="opacity:1" fill="#adcf8f" d="M 93.5,53.5 C 95.1667,53.5 96.8333,53.5 98.5,53.5C 97.8333,56.8333 97.1667,60.1667 96.5,63.5C 95.1779,63.67 94.0113,63.3366 93,62.5C 92.3658,59.4453 92.5325,56.4453 93.5,53.5 Z"/></g>
<g><path style="opacity:1" fill="#b3d395" d="M 96.5,42.5 C 99.9656,43.109 100.966,44.9423 99.5,48C 97.8659,48.4935 96.1992,48.6602 94.5,48.5C 94.2525,46.1417 94.9192,44.1417 96.5,42.5 Z"/></g>
<g><path style="opacity:1" fill="#afd091" d="M 87.5,42.5 C 90.2605,41.9147 91.9272,42.9147 92.5,45.5C 92.5494,49.796 90.5494,52.1293 86.5,52.5C 86.2529,49.0613 86.5863,45.728 87.5,42.5 Z"/></g>
<g><path style="opacity:1" fill="#f4ed4d" d="M 71.5,38.5 C 79.8577,37.204 82.5244,40.5374 79.5,48.5C 78.2628,51.0295 76.4295,53.0295 74,54.5C 72.2367,54.0245 70.57,53.3578 69,52.5C 67.9126,47.408 68.7459,42.7413 71.5,38.5 Z"/></g>
<g><path style="opacity:1" fill="#a9cd8b" d="M 91.5,68.5 C 94.2327,68.1961 95.8994,69.3628 96.5,72C 95.8729,74.1351 95.3729,76.3018 95,78.5C 91.916,79.5335 90.0826,78.3668 89.5,75C 89.8747,72.7114 90.5414,70.5447 91.5,68.5 Z"/></g>
<g><path style="opacity:1" fill="#fefcfd" d="M 277.5,116.5 C 277.266,124.961 272.933,127.961 264.5,125.5C 263.9,117.434 264.566,109.434 266.5,101.5C 267.766,99.3057 267.766,96.9724 266.5,94.5C 268.457,89.0026 269.624,83.3359 270,77.5C 273.219,73.5112 277.219,72.5112 282,74.5C 282.667,78.8333 282.667,83.1667 282,87.5C 280.186,97.1125 278.686,106.779 277.5,116.5 Z"/></g>
<g><path style="opacity:1" fill="#fefcfd" d="M 320.5,118.5 C 320.518,122.124 319.184,125.124 316.5,127.5C 309.943,129.11 303.61,128.61 297.5,126C 293.904,123.242 290.904,120.075 288.5,116.5C 287.117,108.424 287.617,100.424 290,92.5C 291.31,89.5268 293.31,87.1935 296,85.5C 296.483,84.552 296.649,83.552 296.5,82.5C 299.516,82.1594 302.182,80.9927 304.5,79C 311.311,76.692 317.978,77.0254 324.5,80C 330.363,85.3257 329.53,89.1591 322,91.5C 308.949,87.3998 301.449,92.0664 299.5,105.5C 299.86,109.724 301.86,112.891 305.5,115C 310.687,115.764 315.687,116.93 320.5,118.5 Z"/></g>
<g><path style="opacity:1" fill="#a1c984" d="M 80.5,79.5 C 83.9971,79.995 84.9971,81.8283 83.5,85C 79.5369,85.1177 78.5369,83.2843 80.5,79.5 Z"/></g>
<g><path style="opacity:1" fill="#f6c3d9" d="M 252.5,85.5 C 252.238,86.9778 252.571,88.3112 253.5,89.5C 255.54,90.7779 258.54,90.7779 262.5,89.5C 261.979,93.9403 263.313,97.9403 266.5,101.5C 264.566,109.434 263.9,117.434 264.5,125.5C 272.933,127.961 277.266,124.961 277.5,116.5C 278.302,115.048 278.802,113.382 279,111.5C 279.333,112.167 279.667,112.833 280,113.5C 281.487,112.747 281.654,111.914 280.5,111C 283.742,110.717 284.076,109.883 281.5,108.5C 283.006,107.253 284.506,107.253 286,108.5C 286.333,110.833 286.667,113.167 287,115.5C 287.383,116.056 287.883,116.389 288.5,116.5C 290.904,120.075 293.904,123.242 297.5,126C 303.61,128.61 309.943,129.11 316.5,127.5C 315.77,129.045 314.437,129.878 312.5,130C 312.833,130.333 313.167,130.667 313.5,131C 311.059,131.036 309.059,131.869 307.5,133.5C 310.14,136.305 312.973,138.971 316,141.5C 316.977,144.259 316.144,146.259 313.5,147.5C 315.006,148.747 316.506,148.747 318,147.5C 318.483,148.448 318.649,149.448 318.5,150.5C 321.073,150.148 323.406,150.648 325.5,152C 323.209,152.92 320.543,153.753 317.5,154.5C 317.785,152.712 317.452,151.045 316.5,149.5C 316.021,153.036 314.855,153.036 313,149.5C 312.5,150 312,150.5 311.5,151C 313.007,151.837 313.507,153.004 313,154.5C 309.342,154.194 306.008,153.861 303,153.5C 301.438,154.931 299.938,156.431 298.5,158C 298.42,161.041 298.753,164.207 299.5,167.5C 298.096,173.044 296.096,178.377 293.5,183.5C 291.604,184.466 289.604,184.799 287.5,184.5C 284.756,181.751 285.256,180.751 289,181.5C 287.74,178.845 288.574,177.012 291.5,176C 289.939,175.682 288.772,174.849 288,173.5C 286.513,174.253 286.346,175.086 287.5,176C 285.117,176.065 284.45,176.898 285.5,178.5C 284.167,179.833 282.833,179.833 281.5,178.5C 282.744,176.621 282.41,176.288 280.5,177.5C 279.948,179.003 279.948,180.669 280.5,182.5C 279.448,182.649 278.448,182.483 277.5,182C 278.051,180.602 278.384,179.268 278.5,178C 276.833,176 275.167,176 273.5,178C 274.993,179.156 274.826,179.99 273,180.5C 271.566,180.07 270.399,179.236 269.5,178C 268.5,177.333 267.5,177.333 266.5,178C 271.936,181.276 271.603,182.776 265.5,182.5C 267.005,183.842 267.672,185.508 267.5,187.5C 266.448,187.649 265.448,187.483 264.5,187C 265.696,186.346 265.696,185.846 264.5,185.5C 259.912,186.823 259.578,186.323 263.5,184C 262.833,183.333 262.167,182.667 261.5,182C 262.833,181 262.833,180 261.5,179C 262.448,178.517 263.448,178.351 264.5,178.5C 264.822,176.278 264.155,174.444 262.5,173C 263.167,172.667 263.833,172.333 264.5,172C 262.888,171.28 261.388,171.446 260,172.5C 259.517,171.552 259.351,170.552 259.5,169.5C 262.05,169.439 263.55,168.106 264,165.5C 264.333,166.167 264.667,166.833 265,167.5C 266.365,166.407 266.699,165.074 266,163.5C 262.598,156.929 260.931,157.262 261,164.5C 259.53,163.733 258.03,163.067 256.5,162.5C 256.5,161.833 256.167,161.5 255.5,161.5C 253.969,157.433 252.136,153.433 250,149.5C 247.248,147.254 245.082,144.588 243.5,141.5C 245.943,138.938 245.777,136.271 243,133.5C 240.609,134.602 240.109,133.936 241.5,131.5C 239.631,130.376 237.631,129.543 235.5,129C 237.421,127.759 237.754,126.259 236.5,124.5C 234.664,123.972 232.997,123.306 231.5,122.5C 237.262,122.851 242.928,122.351 248.5,121C 260.733,110.782 260.4,101.115 247.5,92C 245.975,90.9914 244.308,90.4914 242.5,90.5C 242.643,88.7376 242.309,87.0709 241.5,85.5C 245.199,82.8417 248.866,82.8417 252.5,85.5 Z"/></g>
<g><path style="opacity:1" fill="#aed090" d="M 88.5,83.5 C 90.6648,83.1159 92.3315,83.7826 93.5,85.5C 93.047,87.5652 92.047,89.2318 90.5,90.5C 87.4974,88.8219 86.8307,86.4886 88.5,83.5 Z"/></g>
<g><path style="opacity:1" fill="#f7ef50" d="M 65.5,79.5 C 69.3607,79.5179 72.0274,81.3513 73.5,85C 71.8992,88.2486 71.0659,91.7486 71,95.5C 68.5027,97.4782 65.6693,97.9782 62.5,97C 61.0203,95.7009 60.3536,94.0342 60.5,92C 61.1252,88.4562 61.9585,84.9562 63,81.5C 63.9947,80.9341 64.828,80.2674 65.5,79.5 Z"/></g>
<g><path style="opacity:1" fill="#aed192" d="M 78.5,88.5 C 83.0408,88.8152 84.0408,90.6485 81.5,94C 80.2161,94.6838 79.0495,94.5171 78,93.5C 78.0187,91.8925 78.1854,90.2259 78.5,88.5 Z"/></g>
<g><path style="opacity:1" fill="#f5c3d8" d="M 109.5,41.5 C 132.603,43.3153 155.603,45.6487 178.5,48.5C 178.077,49.2646 177.743,50.0979 177.5,51C 179.2,53.2309 180.2,55.7309 180.5,58.5C 177.752,59.0322 175.752,60.0322 174.5,61.5C 174.351,62.552 174.517,63.552 175,64.5C 176.351,64.4456 177.518,64.9456 178.5,66C 177.852,67.4397 177.519,68.9397 177.5,70.5C 178.833,70.5 180.167,70.5 181.5,70.5C 181.5,71.8333 181.5,73.1667 181.5,74.5C 178.588,82.1596 176.922,90.1596 176.5,98.5C 180.573,118.261 191.573,123.595 209.5,114.5C 212.329,114.369 213.662,115.369 213.5,117.5C 214.72,116.289 215.887,116.289 217,117.5C 217.333,115.833 217.667,114.167 218,112.5C 219.113,113.305 220.279,113.972 221.5,114.5C 221.751,116.17 222.418,117.67 223.5,119C 226.267,120.083 228.933,121.25 231.5,122.5C 232.997,123.306 234.664,123.972 236.5,124.5C 237.754,126.259 237.421,127.759 235.5,129C 237.631,129.543 239.631,130.376 241.5,131.5C 240.109,133.936 240.609,134.602 243,133.5C 245.777,136.271 245.943,138.938 243.5,141.5C 230.128,130.16 214.794,126.66 197.5,131C 193.249,132.982 188.916,134.816 184.5,136.5C 180.516,138.495 176.849,140.995 173.5,144C 170.906,146.086 168.906,148.586 167.5,151.5C 166.504,151.586 165.671,151.252 165,150.5C 164.781,151.938 164.281,153.271 163.5,154.5C 161.929,153.691 160.262,153.357 158.5,153.5C 158.649,154.552 158.483,155.552 158,156.5C 157.365,155.034 156.531,153.7 155.5,152.5C 157.256,152.64 158.922,152.14 160.5,151C 159.833,150.667 159.167,150.333 158.5,150C 162.135,148.584 162.468,146.584 159.5,144C 160.308,143.692 160.975,143.192 161.5,142.5C 160.469,141.3 159.635,139.966 159,138.5C 157.869,139.604 157.035,139.271 156.5,137.5C 157.025,136.808 157.692,136.308 158.5,136C 155.953,134.684 155.287,132.851 156.5,130.5C 156.167,130.167 155.833,129.833 155.5,129.5C 154.813,131.274 153.98,132.941 153,134.5C 152.805,136.207 152.805,137.874 153,139.5C 151.667,137.5 150.333,135.5 149,133.5C 147.647,134.685 146.48,136.019 145.5,137.5C 145.167,137.333 144.833,137.167 144.5,137C 145.067,134.493 145.4,131.993 145.5,129.5C 144.938,126.227 143.271,125.227 140.5,126.5C 139.712,127.77 138.712,128.77 137.5,129.5C 136.178,129.33 135.011,129.663 134,130.5C 133.832,138.853 133.332,147.187 132.5,155.5C 127.333,157.037 123,159.704 119.5,163.5C 112.855,164.209 112.188,163.042 117.5,160C 113.19,159.777 111.023,161.944 111,166.5C 110.021,168.32 108.521,169.487 106.5,170C 108.848,172.261 108.182,173.761 104.5,174.5C 102.646,173.927 100.813,173.593 99,173.5C 97.2532,176.21 96.2532,179.21 96,182.5C 95.6924,181.692 95.1924,181.025 94.5,180.5C 93.5713,181.689 93.238,183.022 93.5,184.5C 89.4726,184.719 88.8059,183.552 91.5,181C 90.5838,180.626 89.7504,180.126 89,179.5C 87.4039,178.952 86.2373,179.618 85.5,181.5C 85.8508,173.082 86.8508,164.749 88.5,156.5C 96.1497,118.375 103.15,80.042 109.5,41.5 Z"/></g>
<g><path style="opacity:1" fill="#fefcfd" d="M 131.5,62.5 C 134.689,63.5137 137.522,65.1804 140,67.5C 142.776,73.6087 144.776,79.942 146,86.5C 150.076,79.0892 155.576,72.9225 162.5,68C 165.767,66.1805 169.1,66.0138 172.5,67.5C 172.878,81.479 171.044,95.1457 167,108.5C 165.683,112.782 162.683,114.782 158,114.5C 156.893,114.415 155.893,114.081 155,113.5C 154.122,105.307 155.289,97.4736 158.5,90C 158.167,89.1667 157.833,88.3333 157.5,87.5C 153.665,91.5028 149.998,95.6695 146.5,100C 143.653,100.944 141.153,100.444 139,98.5C 136.744,94.0676 135.078,89.401 134,84.5C 131.5,92.6337 129.833,100.967 129,109.5C 126.781,112.739 123.948,113.406 120.5,111.5C 119.61,107.14 119.943,102.806 121.5,98.5C 120.438,95.8971 120.272,93.2305 121,90.5C 123.261,85.4554 124.595,80.1221 125,74.5C 126.512,70.1166 128.679,66.1166 131.5,62.5 Z"/></g>
<g><path style="opacity:1" fill="#b1d293" d="M 87.5,92.5 C 90.9496,92.5726 92.283,94.4059 91.5,98C 92.0293,101.34 90.8627,103.84 88,105.5C 87.228,105.355 86.5613,105.022 86,104.5C 84.994,100.198 85.494,96.1985 87.5,92.5 Z"/></g>
<g><path style="opacity:1" fill="#abcf8e" d="M 76.5,109.5 C 75.3995,108.395 74.7329,107.062 74.5,105.5C 74.4651,100.868 76.7984,98.5348 81.5,98.5C 81.7533,102.415 81.0867,106.081 79.5,109.5C 78.5,109.5 77.5,109.5 76.5,109.5 Z"/></g>
<g><path style="opacity:1" fill="#f5ef50" d="M 67.5,104.5 C 69.6214,109.479 68.2881,113.146 63.5,115.5C 59.5533,114.266 57.5533,111.6 57.5,107.5C 60.3424,105.21 63.6757,104.21 67.5,104.5 Z"/></g>
<g><path style="opacity:1" fill="#b8d69b" d="M 83.5,110.5 C 85.1667,110.5 86.8333,110.5 88.5,110.5C 88.6633,112.857 88.4966,115.19 88,117.5C 86.1556,122.74 84.3222,122.574 82.5,117C 83.2865,114.901 83.6199,112.734 83.5,110.5 Z"/></g>
<g><path style="opacity:1" fill="#9fc984" d="M 75.5,114.5 C 76.8333,114.5 78.1667,114.5 79.5,114.5C 80.1126,118.512 78.4459,120.512 74.5,120.5C 74.2053,118.265 74.5386,116.265 75.5,114.5 Z"/></g>
<g><path style="opacity:1" fill="#b5d498" d="M 80.5,126.5 C 84.9764,126.8 86.3097,128.967 84.5,133C 82.8659,133.494 81.1992,133.66 79.5,133.5C 79.298,131.05 79.6314,128.717 80.5,126.5 Z"/></g>
<g><path style="opacity:1" fill="#bad79c" d="M 76.5,134.5 C 73.0504,135.244 71.3838,133.91 71.5,130.5C 72.2485,129.469 72.9152,128.302 73.5,127C 74.5,126.333 75.5,126.333 76.5,127C 76.8916,129.354 76.8916,131.854 76.5,134.5 Z"/></g>
<g><path style="opacity:1" fill="#b4d396" d="M 77.5,149.5 C 76.4696,146.896 76.4696,144.229 77.5,141.5C 79.8334,139.889 81.5001,140.389 82.5,143C 81.8957,145.524 81.229,148.024 80.5,150.5C 78.9483,151.798 77.9483,151.465 77.5,149.5 Z"/></g>
<g><path style="opacity:1" fill="#eba0bd" d="M 137.5,129.5 C 138.391,130.261 139.058,131.261 139.5,132.5C 139.547,137.932 139.214,143.432 138.5,149C 138.239,152.85 139.406,156.016 142,158.5C 142.798,160.259 142.631,161.926 141.5,163.5C 136.464,169.789 130.131,171.956 122.5,170C 120.549,168.266 119.549,166.099 119.5,163.5C 123,159.704 127.333,157.037 132.5,155.5C 133.332,147.187 133.832,138.853 134,130.5C 135.011,129.663 136.178,129.33 137.5,129.5 Z"/></g>
<g><path style="opacity:1" fill="#eb9fbc" d="M 243.5,141.5 C 245.082,144.588 247.248,147.254 250,149.5C 252.136,153.433 253.969,157.433 255.5,161.5C 255.753,163.827 255.086,165.827 253.5,167.5C 253.864,169.733 254.864,171.566 256.5,173C 255.051,174.117 253.384,174.784 251.5,175C 252.451,175.718 252.617,176.551 252,177.5C 244.5,183.471 246,185.971 256.5,185C 255.185,186.395 255.519,187.395 257.5,188C 254.352,191.616 252.186,191.116 251,186.5C 248.934,188.64 246.6,189.307 244,188.5C 243.667,190.047 244.167,191.38 245.5,192.5C 245.291,193.086 244.957,193.586 244.5,194C 246.167,194.333 247.833,194.667 249.5,195C 247.391,196.141 245.558,197.641 244,199.5C 240.992,194.968 239.826,189.968 240.5,184.5C 237.6,184.72 234.933,184.054 232.5,182.5C 233.811,181.742 234.311,180.742 234,179.5C 232.333,178.833 230.667,178.167 229,177.5C 229.875,179.311 230.209,181.311 230,183.5C 229.586,183.043 229.086,182.709 228.5,182.5C 227.833,183.833 227.167,185.167 226.5,186.5C 225.04,184.578 223.373,183.911 221.5,184.5C 221.49,181.656 220.157,179.156 217.5,177C 218.5,176.5 219.5,176 220.5,175.5C 220.669,176.397 221.002,177.397 221.5,178.5C 223.336,177.081 225.336,175.914 227.5,175C 226.663,173.989 226.33,172.822 226.5,171.5C 227.552,171.649 228.552,171.483 229.5,171C 228.304,170.346 228.304,169.846 229.5,169.5C 231.098,170.485 232.765,170.651 234.5,170C 234.043,169.586 233.709,169.086 233.5,168.5C 235.945,166.636 236.112,164.636 234,162.5C 232.982,167.116 230.149,168.616 225.5,167C 227.329,166.727 228.829,165.893 230,164.5C 230.333,164.833 230.667,165.167 231,165.5C 232.113,164.24 232.28,163.073 231.5,162C 233.883,160.803 233.55,159.97 230.5,159.5C 227.991,160.921 225.657,162.588 223.5,164.5C 223.709,165.086 224.043,165.586 224.5,166C 223.128,166.402 221.795,166.902 220.5,167.5C 220.094,166.443 220.094,165.109 220.5,163.5C 216.781,163.002 213.447,163.836 210.5,166C 211.833,167.667 213.167,169.333 214.5,171C 214.043,171.414 213.709,171.914 213.5,172.5C 215.731,172.887 218.064,173.053 220.5,173C 217.565,174.715 214.732,176.548 212,178.5C 210.7,177.293 209.2,176.626 207.5,176.5C 207.344,180.135 206.178,180.468 204,177.5C 204.195,179.126 204.195,180.793 204,182.5C 202.887,183.711 201.72,183.711 200.5,182.5C 199.646,183.948 198.646,185.281 197.5,186.5C 200.665,192.026 205.332,195.026 211.5,195.5C 211.351,194.448 211.517,193.448 212,192.5C 212.879,194.979 214.379,196.979 216.5,198.5C 217.308,196.577 217.808,194.577 218,192.5C 219.609,193.147 221.109,193.98 222.5,195C 221.376,195.249 220.376,195.749 219.5,196.5C 221.29,200.114 223.957,202.78 227.5,204.5C 228.18,205.86 228.847,207.193 229.5,208.5C 228.527,209.791 227.527,209.791 226.5,208.5C 225.002,205.747 223.002,203.414 220.5,201.5C 218.748,203.877 216.748,204.044 214.5,202C 214.833,201.667 215.167,201.333 215.5,201C 213.33,197.975 210.996,197.808 208.5,200.5C 206.619,198.266 204.285,196.933 201.5,196.5C 197.674,193.566 195.841,189.566 196,184.5C 192.709,182.379 190.876,179.379 190.5,175.5C 192.374,171.828 193.707,167.994 194.5,164C 193.707,162.915 193.04,161.748 192.5,160.5C 194.765,159.3 196.598,157.633 198,155.5C 200.394,156.136 202.894,156.136 205.5,155.5C 205.281,156.675 205.614,157.675 206.5,158.5C 206.833,158.167 207.167,157.833 207.5,157.5C 206.167,156.167 206.167,154.833 207.5,153.5C 206.224,152.355 204.891,152.355 203.5,153.5C 201.808,151.641 200.308,149.641 199,147.5C 197.933,148.191 196.766,148.691 195.5,149C 196.747,150.494 196.747,151.994 195.5,153.5C 194.833,152.833 194.167,152.167 193.5,151.5C 192.576,153.39 191.243,154.89 189.5,156C 190.552,157.716 189.886,158.716 187.5,159C 188.428,159.388 189.095,160.055 189.5,161C 188.465,162.274 187.298,163.44 186,164.5C 184.956,162.285 184.29,159.952 184,157.5C 181.878,156.78 181.378,155.613 182.5,154C 178.547,152.796 177.88,150.796 180.5,148C 179.453,146.422 179.453,144.922 180.5,143.5C 181.086,143.709 181.586,144.043 182,144.5C 183.041,142.415 184.541,140.748 186.5,139.5C 185.388,138.735 184.721,137.735 184.5,136.5C 188.916,134.816 193.249,132.982 197.5,131C 214.794,126.66 230.128,130.16 243.5,141.5 Z"/></g>
<g><path style="opacity:1" fill="#f5c1d8" d="M 167.5,151.5 C 166.194,152.467 165.527,153.801 165.5,155.5C 164.5,155.5 163.5,155.5 162.5,155.5C 160.572,162.282 158.239,168.949 155.5,175.5C 154.448,181.796 153.781,188.13 153.5,194.5C 151.56,189.976 149.56,189.809 147.5,194C 146.5,194.333 145.5,194.667 144.5,195C 145.696,195.654 145.696,196.154 144.5,196.5C 143.468,194.96 142.135,194.46 140.5,195C 141.167,195.333 141.833,195.667 142.5,196C 141.889,198.195 141.222,200.695 140.5,203.5C 139.167,203.5 137.833,203.5 136.5,203.5C 136.649,202.448 136.483,201.448 136,200.5C 134.084,201.928 131.917,202.928 129.5,203.5C 129.977,204.478 130.643,205.311 131.5,206C 127.128,208.542 125.128,209.042 125.5,207.5C 125.5,206.5 125.5,205.5 125.5,204.5C 122.757,203.612 120.09,202.445 117.5,201C 117.043,200.586 116.709,200.086 116.5,199.5C 117.458,198.883 117.958,198.216 118,197.5C 115.51,196.257 113.01,195.09 110.5,194C 111.685,191.943 112.685,189.943 113.5,188C 111.447,187.675 109.447,188.009 107.5,189C 107.833,189.333 108.167,189.667 108.5,190C 106.608,190.973 104.608,191.64 102.5,192C 103.025,192.692 103.692,193.192 104.5,193.5C 105.451,192.674 106.451,192.508 107.5,193C 111.77,196.071 112.437,199.571 109.5,203.5C 111.36,204.939 113.027,206.605 114.5,208.5C 112.262,211.433 111.262,211.099 111.5,207.5C 109.641,207.539 108.308,206.706 107.5,205C 108.76,203.186 108.76,201.353 107.5,199.5C 106.289,200.274 106.289,201.107 107.5,202C 105.694,202.81 104.194,203.976 103,205.5C 102.5,205.333 102,205.167 101.5,205C 102.833,203.16 102.666,202.66 101,203.5C 98.8669,202.745 97.2002,201.412 96,199.5C 94.7941,202.06 93.2941,202.56 91.5,201C 95.6185,197.636 94.9518,195.303 89.5,194C 90.0979,191.402 88.9312,189.569 86,188.5C 85.5034,186.19 85.3367,183.857 85.5,181.5C 86.2373,179.618 87.4039,178.952 89,179.5C 89.7504,180.126 90.5838,180.626 91.5,181C 88.8059,183.552 89.4726,184.719 93.5,184.5C 93.238,183.022 93.5713,181.689 94.5,180.5C 95.1924,181.025 95.6924,181.692 96,182.5C 96.2532,179.21 97.2532,176.21 99,173.5C 100.813,173.593 102.646,173.927 104.5,174.5C 108.182,173.761 108.848,172.261 106.5,170C 108.521,169.487 110.021,168.32 111,166.5C 111.023,161.944 113.19,159.777 117.5,160C 112.188,163.042 112.855,164.209 119.5,163.5C 119.549,166.099 120.549,168.266 122.5,170C 130.131,171.956 136.464,169.789 141.5,163.5C 142.631,161.926 142.798,160.259 142,158.5C 139.406,156.016 138.239,152.85 138.5,149C 139.214,143.432 139.547,137.932 139.5,132.5C 139.058,131.261 138.391,130.261 137.5,129.5C 138.712,128.77 139.712,127.77 140.5,126.5C 143.271,125.227 144.938,126.227 145.5,129.5C 145.4,131.993 145.067,134.493 144.5,137C 144.833,137.167 145.167,137.333 145.5,137.5C 146.48,136.019 147.647,134.685 149,133.5C 150.333,135.5 151.667,137.5 153,139.5C 152.805,137.874 152.805,136.207 153,134.5C 153.98,132.941 154.813,131.274 155.5,129.5C 155.833,129.833 156.167,130.167 156.5,130.5C 155.287,132.851 155.953,134.684 158.5,136C 157.692,136.308 157.025,136.808 156.5,137.5C 157.035,139.271 157.869,139.604 159,138.5C 159.635,139.966 160.469,141.3 161.5,142.5C 160.975,143.192 160.308,143.692 159.5,144C 162.468,146.584 162.135,148.584 158.5,150C 159.167,150.333 159.833,150.667 160.5,151C 158.922,152.14 157.256,152.64 155.5,152.5C 156.531,153.7 157.365,155.034 158,156.5C 158.483,155.552 158.649,154.552 158.5,153.5C 160.262,153.357 161.929,153.691 163.5,154.5C 164.281,153.271 164.781,151.938 165,150.5C 165.671,151.252 166.504,151.586 167.5,151.5 Z"/></g>
<g><path style="opacity:1" fill="#389d31" d="M 74.5,105.5 C 74.7329,107.062 75.3995,108.395 76.5,109.5C 74.9397,111.129 75.273,112.296 77.5,113C 76.5842,113.278 75.9175,113.778 75.5,114.5C 74.5386,116.265 74.2053,118.265 74.5,120.5C 72.668,121.14 72.3347,122.14 73.5,123.5C 75.4363,121.022 77.4363,121.022 79.5,123.5C 78.2418,122.984 77.2418,123.65 76.5,125.5C 72.7191,124.609 71.0525,126.276 71.5,130.5C 71.3838,133.91 73.0504,135.244 76.5,134.5C 75.7222,135.156 75.0556,135.989 74.5,137C 74.9444,138.762 75.4444,138.595 76,136.5C 77.0086,138.025 77.5086,139.692 77.5,141.5C 76.4696,144.229 76.4696,146.896 77.5,149.5C 74.2748,151.942 72.2748,150.942 71.5,146.5C 70.448,146.351 69.448,146.517 68.5,147C 70.2532,148.999 71.5865,151.165 72.5,153.5C 73.9778,153.238 75.3112,153.571 76.5,154.5C 75.3881,155.265 74.7214,156.265 74.5,157.5C 73.1991,158.884 73.1991,160.384 74.5,162C 76.9449,162.91 78.2782,162.076 78.5,159.5C 80.205,160.535 81.8716,160.535 83.5,159.5C 84.7112,158.726 84.7112,157.893 83.5,157C 84.3247,155.312 85.3247,155.145 86.5,156.5C 87.776,151.318 88.4427,151.318 88.5,156.5C 86.8508,164.749 85.8508,173.082 85.5,181.5C 82.5785,189.779 80.9118,198.446 80.5,207.5C 79.7811,209.091 78.7811,210.591 77.5,212C 78.3366,213.011 78.67,214.178 78.5,215.5C 75.7767,227.645 73.7767,239.978 72.5,252.5C 70.8556,256.902 69.8556,261.569 69.5,266.5C 67.7821,272.626 66.7821,278.959 66.5,285.5C 65.5233,288.287 65.19,291.287 65.5,294.5C 64.8826,294.611 64.3826,294.944 64,295.5C 63.5045,297.473 63.3379,299.473 63.5,301.5C 48.9042,301.338 34.2376,300.505 19.5,299C 18.3181,297.232 16.9848,297.065 15.5,298.5C 16.4321,291.695 17.5988,284.695 19,277.5C 20.5385,276.454 20.7052,275.121 19.5,273.5C 20.6999,269.555 21.5332,265.221 22,260.5C 23.8364,258.257 24.3364,255.924 23.5,253.5C 23.886,248.787 24.886,244.287 26.5,240C 25.2476,237.804 25.5809,235.804 27.5,234C 27.1667,233.667 26.8333,233.333 26.5,233C 27.5926,228.35 28.5926,223.684 29.5,219C 28.5419,217.853 28.8753,216.853 30.5,216C 29.2164,214.703 29.3831,213.536 31,212.5C 31.3333,208.833 31.6667,205.167 32,201.5C 33.3156,195.639 34.8156,189.806 36.5,184C 35.9781,183.439 35.6448,182.772 35.5,182C 37.9348,174.036 39.4348,165.869 40,157.5C 40.3143,155.131 41.1476,152.964 42.5,151C 41.1224,148.902 41.4558,147.068 43.5,145.5C 43.0688,144.707 42.7355,143.873 42.5,143C 44.0982,135.445 45.7649,127.945 47.5,120.5C 47.1667,119.833 46.8333,119.167 46.5,118.5C 47.6594,115.519 48.6594,112.519 49.5,109.5C 50.3764,109.631 51.0431,109.298 51.5,108.5C 50.4937,107.604 50.4937,106.938 51.5,106.5C 52.1924,107.025 52.6924,107.692 53,108.5C 54.6665,107.66 54.8331,108.16 53.5,110C 54.0253,110.692 54.6919,111.192 55.5,111.5C 56.1719,110.051 56.8386,108.718 57.5,107.5C 57.5533,111.6 59.5533,114.266 63.5,115.5C 68.2881,113.146 69.6214,109.479 67.5,104.5C 68.552,104.649 69.552,104.483 70.5,104C 69.3044,103.346 69.3044,102.846 70.5,102.5C 71.8425,103.902 72.6758,103.569 73,101.5C 73.7914,102.745 74.2914,104.078 74.5,105.5 Z"/></g>
<g><path style="opacity:1" fill="#abcf8d" d="M 72.5,168.5 C 75.9656,169.109 76.9656,170.942 75.5,174C 74.2068,174.49 72.8734,174.657 71.5,174.5C 71.3253,172.379 71.6586,170.379 72.5,168.5 Z"/></g>
<g><path style="opacity:1" fill="#f1ec4d" d="M 51.5,163.5 C 53.3146,164.63 55.3146,165.296 57.5,165.5C 59.3646,173.636 56.3646,176.636 48.5,174.5C 45.3249,169.712 46.3249,166.046 51.5,163.5 Z"/></g>
<g><path style="opacity:1" fill="#b2d293" d="M 74.5,157.5 C 76.3797,157.229 77.713,157.896 78.5,159.5C 78.2782,162.076 76.9449,162.91 74.5,162C 73.1991,160.384 73.1991,158.884 74.5,157.5 Z"/></g>
<g><path style="opacity:1" fill="#f3ee52" d="M 55.5,145.5 C 62.5674,148.205 63.2341,152.038 57.5,157C 55.1913,157.756 53.1913,157.256 51.5,155.5C 50.4911,152.527 50.4911,149.527 51.5,146.5C 53.099,146.768 54.4324,146.434 55.5,145.5 Z"/></g>
<g><path style="opacity:1" fill="#f2ed4e" d="M 55.5,122.5 C 58.2469,122.187 60.9135,122.52 63.5,123.5C 64.3829,124.548 65.0496,125.715 65.5,127C 66.3175,133.875 63.6508,138.708 57.5,141.5C 55.043,139.557 53.7097,137.057 53.5,134C 54.1051,130.143 54.7717,126.31 55.5,122.5 Z"/></g>
<g><path style="opacity:1" fill="#f5c2d8" d="M 342.5,125.5 C 336.286,156.438 330.786,187.772 326,219.5C 323.787,222.108 323.287,224.941 324.5,228C 321.42,244.562 318.42,261.062 315.5,277.5C 314.778,277.918 314.278,278.584 314,279.5C 313.436,275.086 311.603,274.419 308.5,277.5C 305.693,276.079 305.026,274.079 306.5,271.5C 305.751,269.964 304.751,268.631 303.5,267.5C 305.743,266.526 308.076,266.192 310.5,266.5C 309.964,264.033 309.464,261.7 309,259.5C 308.308,260.025 307.808,260.692 307.5,261.5C 309.017,264.475 308.351,265.142 305.5,263.5C 303.65,265.572 301.317,266.905 298.5,267.5C 298.167,267.167 297.833,266.833 297.5,266.5C 298.325,265.614 299.325,265.281 300.5,265.5C 300.5,264.5 300.5,263.5 300.5,262.5C 298,263.123 295.5,263.457 293,263.5C 291.556,261.845 289.722,261.178 287.5,261.5C 287.762,259.436 288.929,258.103 291,257.5C 292.033,252.303 294.199,247.636 297.5,243.5C 296.754,242.264 296.421,240.93 296.5,239.5C 294.418,239.472 292.584,240.139 291,241.5C 287.303,248.374 283.803,255.374 280.5,262.5C 276.215,262.202 271.881,262.536 267.5,263.5C 266.534,261.943 265.2,260.61 263.5,259.5C 262.188,260.46 260.854,260.294 259.5,259C 265.954,257.246 265.954,255.913 259.5,255C 262.298,253.804 264.298,251.804 265.5,249C 263.209,248.985 261.042,248.818 259,248.5C 257.124,251.428 254.624,252.094 251.5,250.5C 250.193,251.816 248.693,252.816 247,253.5C 246.333,254.5 246.333,255.5 247,256.5C 248.422,256.594 249.922,256.928 251.5,257.5C 253.034,259.302 253.368,261.135 252.5,263C 252.905,263.945 253.572,264.612 254.5,265C 252.387,265.872 251.054,267.372 250.5,269.5C 250.818,270.647 251.484,271.481 252.5,272C 249.633,274.6 249.799,275.766 253,275.5C 254.854,278.652 254.521,281.652 252,284.5C 250.149,283.463 248.983,284.13 248.5,286.5C 245.729,269.515 238.562,254.515 227,241.5C 226.516,239.807 227.016,238.473 228.5,237.5C 247.15,223.509 257.484,204.676 259.5,181C 258.05,174.9 257.05,168.733 256.5,162.5C 258.03,163.067 259.53,163.733 261,164.5C 260.931,157.262 262.598,156.929 266,163.5C 266.699,165.074 266.365,166.407 265,167.5C 264.667,166.833 264.333,166.167 264,165.5C 263.55,168.106 262.05,169.439 259.5,169.5C 259.351,170.552 259.517,171.552 260,172.5C 261.388,171.446 262.888,171.28 264.5,172C 263.833,172.333 263.167,172.667 262.5,173C 264.155,174.444 264.822,176.278 264.5,178.5C 263.448,178.351 262.448,178.517 261.5,179C 262.833,180 262.833,181 261.5,182C 262.167,182.667 262.833,183.333 263.5,184C 259.578,186.323 259.912,186.823 264.5,185.5C 265.696,185.846 265.696,186.346 264.5,187C 265.448,187.483 266.448,187.649 267.5,187.5C 267.672,185.508 267.005,183.842 265.5,182.5C 271.603,182.776 271.936,181.276 266.5,178C 267.5,177.333 268.5,177.333 269.5,178C 270.399,179.236 271.566,180.07 273,180.5C 274.826,179.99 274.993,179.156 273.5,178C 275.167,176 276.833,176 278.5,178C 278.384,179.268 278.051,180.602 277.5,182C 278.448,182.483 279.448,182.649 280.5,182.5C 279.948,180.669 279.948,179.003 280.5,177.5C 282.41,176.288 282.744,176.621 281.5,178.5C 282.833,179.833 284.167,179.833 285.5,178.5C 284.45,176.898 285.117,176.065 287.5,176C 286.346,175.086 286.513,174.253 288,173.5C 288.772,174.849 289.939,175.682 291.5,176C 288.574,177.012 287.74,178.845 289,181.5C 285.256,180.751 284.756,181.751 287.5,184.5C 286.22,185.931 284.553,186.598 282.5,186.5C 280.814,193.403 283.647,196.737 291,196.5C 294.735,196.799 297.735,195.466 300,192.5C 300.333,188.833 300.667,185.167 301,181.5C 302.308,178.27 303.308,174.936 304,171.5C 306.001,166.811 308.334,166.478 311,170.5C 314.026,175.929 312.86,179.929 307.5,182.5C 306.801,184.997 307.968,186.33 311,186.5C 313.406,186.297 315.406,185.297 317,183.5C 319.742,172.178 315.908,164.178 305.5,159.5C 301.717,160.883 299.717,163.55 299.5,167.5C 298.753,164.207 298.42,161.041 298.5,158C 299.938,156.431 301.438,154.931 303,153.5C 306.008,153.861 309.342,154.194 313,154.5C 313.507,153.004 313.007,151.837 311.5,151C 312,150.5 312.5,150 313,149.5C 314.855,153.036 316.021,153.036 316.5,149.5C 317.452,151.045 317.785,152.712 317.5,154.5C 320.543,153.753 323.209,152.92 325.5,152C 323.406,150.648 321.073,150.148 318.5,150.5C 318.649,149.448 318.483,148.448 318,147.5C 316.506,148.747 315.006,148.747 313.5,147.5C 316.144,146.259 316.977,144.259 316,141.5C 312.973,138.971 310.14,136.305 307.5,133.5C 309.059,131.869 311.059,131.036 313.5,131C 313.167,130.667 312.833,130.333 312.5,130C 314.437,129.878 315.77,129.045 316.5,127.5C 319.184,125.124 320.518,122.124 320.5,118.5C 321.708,117.766 323.041,117.433 324.5,117.5C 324.778,115.654 324.111,114.32 322.5,113.5C 321.614,114.325 321.281,115.325 321.5,116.5C 317.858,115.92 314.191,115.42 310.5,115C 311.701,114.097 312.535,112.931 313,111.5C 315.466,112.11 317.966,111.776 320.5,110.5C 322.455,108.332 323.121,105.998 322.5,103.5C 323.167,104.167 323.833,104.833 324.5,105.5C 326.516,104.294 328.516,104.294 330.5,105.5C 328.252,106.324 328.086,107.324 330,108.5C 331.11,106.963 332.61,106.297 334.5,106.5C 334.5,107.5 334.5,108.5 334.5,109.5C 335.5,109.5 336.5,109.5 337.5,109.5C 337.313,111.564 336.813,113.564 336,115.5C 334.691,117.891 333.691,117.891 333,115.5C 332,116.833 331,118.167 330,119.5C 329.667,118.5 329.333,117.5 329,116.5C 328.202,118.259 328.369,119.926 329.5,121.5C 333.095,120.141 336.429,118.308 339.5,116C 340.5,115.333 341.5,115.333 342.5,116C 340.417,118.902 337.751,120.902 334.5,122C 334.545,124.636 334.712,127.47 335,130.5C 335.5,131 336,131.5 336.5,132C 335.376,132.249 334.376,132.749 333.5,133.5C 332.62,136.012 331.287,138.179 329.5,140C 330.5,140.667 331.5,140.667 332.5,140C 333.479,137.597 334.979,136.764 337,137.5C 338.418,134.856 338.918,132.189 338.5,129.5C 334.288,127.278 334.621,126.111 339.5,126C 339.167,125.667 338.833,125.333 338.5,125C 339.416,124.626 340.25,124.126 341,123.5C 341.278,124.416 341.778,125.082 342.5,125.5 Z"/></g>
<g><path style="opacity:1" fill="#eca2be" d="M 287.5,184.5 C 289.604,184.799 291.604,184.466 293.5,183.5C 296.096,178.377 298.096,173.044 299.5,167.5C 299.717,163.55 301.717,160.883 305.5,159.5C 315.908,164.178 319.742,172.178 317,183.5C 315.406,185.297 313.406,186.297 311,186.5C 307.968,186.33 306.801,184.997 307.5,182.5C 312.86,179.929 314.026,175.929 311,170.5C 308.334,166.478 306.001,166.811 304,171.5C 303.308,174.936 302.308,178.27 301,181.5C 300.667,185.167 300.333,188.833 300,192.5C 297.735,195.466 294.735,196.799 291,196.5C 283.647,196.737 280.814,193.403 282.5,186.5C 284.553,186.598 286.22,185.931 287.5,184.5 Z"/></g>
<g><path style="opacity:1" fill="#b6d498" d="M 71.5,178.5 C 73.3005,179.719 74.3005,181.552 74.5,184C 73.6667,186.5 72.1667,187 70,185.5C 69.1668,182.829 69.6668,180.496 71.5,178.5 Z"/></g>
<g><path style="opacity:1" fill="#f4ee51" d="M 48.5,181.5 C 50.679,181.84 52.5123,182.84 54,184.5C 56.3333,193.167 53.3333,195.833 45,192.5C 42.713,187.53 43.8796,183.863 48.5,181.5 Z"/></g>
<g><path style="opacity:1" fill="#eca2be" d="M 255.5,161.5 C 256.167,161.5 256.5,161.833 256.5,162.5C 257.05,168.733 258.05,174.9 259.5,181C 257.484,204.676 247.15,223.509 228.5,237.5C 227.571,236.685 226.571,235.852 225.5,235C 227.007,234.163 227.507,232.996 227,231.5C 225.647,232.685 224.48,234.019 223.5,235.5C 223.446,234.47 223.112,233.303 222.5,232C 220.893,232.019 219.226,232.185 217.5,232.5C 217.762,233.978 217.429,235.311 216.5,236.5C 213.338,237.47 212.505,239.137 214,241.5C 214.333,240.833 214.667,240.167 215,239.5C 217.144,242.757 216.644,245.257 213.5,247C 212.234,247.309 211.067,247.809 210,248.5C 209.751,247.376 209.251,246.376 208.5,245.5C 207.227,245.746 206.06,245.746 205,245.5C 204.506,243.866 204.34,242.199 204.5,240.5C 202.654,240.778 201.32,240.111 200.5,238.5C 203.248,237.356 205.081,238.356 206,241.5C 207.617,240.464 207.784,239.297 206.5,238C 208.307,236.398 210.307,235.064 212.5,234C 210.841,231.518 208.508,230.018 205.5,229.5C 204.522,229.977 203.689,230.643 203,231.5C 203.595,229.452 203.095,227.452 201.5,225.5C 202.833,225.167 204.167,224.833 205.5,224.5C 207.132,225.297 208.632,226.297 210,227.5C 211.059,227.37 211.892,226.87 212.5,226C 211.549,225.282 211.383,224.449 212,223.5C 213.356,224.38 214.856,224.714 216.5,224.5C 214.647,221.352 213.147,218.352 212,215.5C 210.85,216.424 209.85,216.424 209,215.5C 208.915,217.085 208.749,218.418 208.5,219.5C 206.694,217.392 204.527,215.726 202,214.5C 201.946,217.044 202.78,219.378 204.5,221.5C 204.167,222.167 203.833,222.833 203.5,223.5C 201.72,221.556 199.553,220.223 197,219.5C 195.521,220.873 195.688,222.373 197.5,224C 194.303,222.838 192.636,220.338 192.5,216.5C 190.833,216.5 189.167,216.5 187.5,216.5C 187.406,212.266 189.406,209.933 193.5,209.5C 193.231,211.429 193.731,213.095 195,214.5C 195.617,213.551 195.451,212.718 194.5,212C 195.931,211.535 197.097,210.701 198,209.5C 199.204,210.471 199.704,211.471 199.5,212.5C 201.071,211.691 202.738,211.357 204.5,211.5C 204.5,210.167 204.5,208.833 204.5,207.5C 207.025,206.108 209.192,206.442 211,208.5C 213.042,207.715 215.042,208.048 217,209.5C 217.419,208.328 218.085,207.328 219,206.5C 219.516,209.034 220.683,211.2 222.5,213C 220.956,213.29 219.623,213.956 218.5,215C 221.788,215.977 224.788,217.477 227.5,219.5C 229.843,217.392 229.51,215.392 226.5,213.5C 228.329,212.718 229.829,213.384 231,215.5C 231.167,215 231.333,214.5 231.5,214C 230.115,212.403 229.449,210.57 229.5,208.5C 228.847,207.193 228.18,205.86 227.5,204.5C 223.957,202.78 221.29,200.114 219.5,196.5C 220.376,195.749 221.376,195.249 222.5,195C 221.109,193.98 219.609,193.147 218,192.5C 217.808,194.577 217.308,196.577 216.5,198.5C 214.379,196.979 212.879,194.979 212,192.5C 211.517,193.448 211.351,194.448 211.5,195.5C 205.332,195.026 200.665,192.026 197.5,186.5C 198.646,185.281 199.646,183.948 200.5,182.5C 201.72,183.711 202.887,183.711 204,182.5C 204.195,180.793 204.195,179.126 204,177.5C 206.178,180.468 207.344,180.135 207.5,176.5C 209.2,176.626 210.7,177.293 212,178.5C 214.732,176.548 217.565,174.715 220.5,173C 218.064,173.053 215.731,172.887 213.5,172.5C 213.709,171.914 214.043,171.414 214.5,171C 213.167,169.333 211.833,167.667 210.5,166C 213.447,163.836 216.781,163.002 220.5,163.5C 220.094,165.109 220.094,166.443 220.5,167.5C 221.795,166.902 223.128,166.402 224.5,166C 224.043,165.586 223.709,165.086 223.5,164.5C 225.657,162.588 227.991,160.921 230.5,159.5C 233.55,159.97 233.883,160.803 231.5,162C 232.28,163.073 232.113,164.24 231,165.5C 230.667,165.167 230.333,164.833 230,164.5C 228.829,165.893 227.329,166.727 225.5,167C 230.149,168.616 232.982,167.116 234,162.5C 236.112,164.636 235.945,166.636 233.5,168.5C 233.709,169.086 234.043,169.586 234.5,170C 232.765,170.651 231.098,170.485 229.5,169.5C 228.304,169.846 228.304,170.346 229.5,171C 228.552,171.483 227.552,171.649 226.5,171.5C 226.33,172.822 226.663,173.989 227.5,175C 225.336,175.914 223.336,177.081 221.5,178.5C 221.002,177.397 220.669,176.397 220.5,175.5C 219.5,176 218.5,176.5 217.5,177C 220.157,179.156 221.49,181.656 221.5,184.5C 223.373,183.911 225.04,184.578 226.5,186.5C 227.167,185.167 227.833,183.833 228.5,182.5C 229.086,182.709 229.586,183.043 230,183.5C 230.209,181.311 229.875,179.311 229,177.5C 230.667,178.167 232.333,178.833 234,179.5C 234.311,180.742 233.811,181.742 232.5,182.5C 234.933,184.054 237.6,184.72 240.5,184.5C 239.826,189.968 240.992,194.968 244,199.5C 245.558,197.641 247.391,196.141 249.5,195C 247.833,194.667 246.167,194.333 244.5,194C 244.957,193.586 245.291,193.086 245.5,192.5C 244.167,191.38 243.667,190.047 244,188.5C 246.6,189.307 248.934,188.64 251,186.5C 252.186,191.116 254.352,191.616 257.5,188C 255.519,187.395 255.185,186.395 256.5,185C 246,185.971 244.5,183.471 252,177.5C 252.617,176.551 252.451,175.718 251.5,175C 253.384,174.784 255.051,174.117 256.5,173C 254.864,171.566 253.864,169.733 253.5,167.5C 255.086,165.827 255.753,163.827 255.5,161.5 Z"/></g>
<g><path style="opacity:1" fill="#eca3bf" d="M 184.5,136.5 C 184.721,137.735 185.388,138.735 186.5,139.5C 184.541,140.748 183.041,142.415 182,144.5C 181.586,144.043 181.086,143.709 180.5,143.5C 179.453,144.922 179.453,146.422 180.5,148C 177.88,150.796 178.547,152.796 182.5,154C 181.378,155.613 181.878,156.78 184,157.5C 184.29,159.952 184.956,162.285 186,164.5C 187.298,163.44 188.465,162.274 189.5,161C 189.095,160.055 188.428,159.388 187.5,159C 189.886,158.716 190.552,157.716 189.5,156C 191.243,154.89 192.576,153.39 193.5,151.5C 194.167,152.167 194.833,152.833 195.5,153.5C 196.747,151.994 196.747,150.494 195.5,149C 196.766,148.691 197.933,148.191 199,147.5C 200.308,149.641 201.808,151.641 203.5,153.5C 204.891,152.355 206.224,152.355 207.5,153.5C 206.167,154.833 206.167,156.167 207.5,157.5C 207.167,157.833 206.833,158.167 206.5,158.5C 205.614,157.675 205.281,156.675 205.5,155.5C 202.894,156.136 200.394,156.136 198,155.5C 196.598,157.633 194.765,159.3 192.5,160.5C 193.04,161.748 193.707,162.915 194.5,164C 193.707,167.994 192.374,171.828 190.5,175.5C 190.876,179.379 192.709,182.379 196,184.5C 195.841,189.566 197.674,193.566 201.5,196.5C 198.897,197.923 196.397,199.59 194,201.5C 192.883,200.051 192.216,198.384 192,196.5C 189.052,198.412 189.219,200.412 192.5,202.5C 190.577,203.308 188.577,203.808 186.5,204C 187.38,205.356 187.714,206.856 187.5,208.5C 185.857,208.52 184.524,207.853 183.5,206.5C 182.914,206.709 182.414,207.043 182,207.5C 181.311,210.408 180.145,213.075 178.5,215.5C 180.882,218.802 179.882,220.802 175.5,221.5C 175.363,228.626 176.03,228.959 177.5,222.5C 178.192,223.025 178.692,223.692 179,224.5C 179.562,219.903 180.728,219.57 182.5,223.5C 181.833,223.833 181.167,224.167 180.5,224.5C 181.681,226.198 181.681,227.865 180.5,229.5C 178.241,229.784 176.574,230.784 175.5,232.5C 173.786,229.787 171.453,227.787 168.5,226.5C 157.893,218.646 152.893,207.98 153.5,194.5C 153.781,188.13 154.448,181.796 155.5,175.5C 158.239,168.949 160.572,162.282 162.5,155.5C 163.5,155.5 164.5,155.5 165.5,155.5C 165.527,153.801 166.194,152.467 167.5,151.5C 168.906,148.586 170.906,146.086 173.5,144C 176.849,140.995 180.516,138.495 184.5,136.5 Z"/></g>
<g><path style="opacity:1" fill="#f5c3d8" d="M 85.5,181.5 C 85.3367,183.857 85.5034,186.19 86,188.5C 88.9312,189.569 90.0979,191.402 89.5,194C 94.9518,195.303 95.6185,197.636 91.5,201C 93.2941,202.56 94.7941,202.06 96,199.5C 97.2002,201.412 98.8669,202.745 101,203.5C 102.666,202.66 102.833,203.16 101.5,205C 102,205.167 102.5,205.333 103,205.5C 104.194,203.976 105.694,202.81 107.5,202C 106.289,201.107 106.289,200.274 107.5,199.5C 108.76,201.353 108.76,203.186 107.5,205C 108.308,206.706 109.641,207.539 111.5,207.5C 111.262,211.099 112.262,211.433 114.5,208.5C 113.027,206.605 111.36,204.939 109.5,203.5C 112.437,199.571 111.77,196.071 107.5,193C 106.451,192.508 105.451,192.674 104.5,193.5C 103.692,193.192 103.025,192.692 102.5,192C 104.608,191.64 106.608,190.973 108.5,190C 108.167,189.667 107.833,189.333 107.5,189C 109.447,188.009 111.447,187.675 113.5,188C 112.685,189.943 111.685,191.943 110.5,194C 113.01,195.09 115.51,196.257 118,197.5C 117.958,198.216 117.458,198.883 116.5,199.5C 116.709,200.086 117.043,200.586 117.5,201C 120.09,202.445 122.757,203.612 125.5,204.5C 125.5,205.5 125.5,206.5 125.5,207.5C 125.128,209.042 127.128,208.542 131.5,206C 130.643,205.311 129.977,204.478 129.5,203.5C 131.917,202.928 134.084,201.928 136,200.5C 136.483,201.448 136.649,202.448 136.5,203.5C 137.833,203.5 139.167,203.5 140.5,203.5C 141.222,200.695 141.889,198.195 142.5,196C 141.833,195.667 141.167,195.333 140.5,195C 142.135,194.46 143.468,194.96 144.5,196.5C 145.696,196.154 145.696,195.654 144.5,195C 145.5,194.667 146.5,194.333 147.5,194C 149.56,189.809 151.56,189.976 153.5,194.5C 152.893,207.98 157.893,218.646 168.5,226.5C 168.611,227.117 168.944,227.617 169.5,228C 168.299,228.903 167.465,230.069 167,231.5C 166.667,230.5 166.333,229.5 166,228.5C 164.057,232.053 162.39,235.719 161,239.5C 160.683,237.699 160.016,237.366 159,238.5C 158.454,233.255 155.787,231.255 151,232.5C 149.887,230.671 148.387,229.837 146.5,230C 148.02,231.885 149.02,234.051 149.5,236.5C 148.919,238.724 147.586,239.557 145.5,239C 147.245,237.308 147.578,235.475 146.5,233.5C 145.614,234.325 145.281,235.325 145.5,236.5C 144.5,236.5 143.5,236.5 142.5,236.5C 143.531,243.933 141.864,244.433 137.5,238C 135.975,236.991 134.308,236.491 132.5,236.5C 123.836,233.054 114.836,230.887 105.5,230C 103.951,231.214 102.785,232.714 102,234.5C 100.551,242.015 98.0512,249.015 94.5,255.5C 91.1501,255.335 87.8168,255.502 84.5,256C 81.4804,257.89 80.8137,260.39 82.5,263.5C 83.2858,265.041 84.2858,266.374 85.5,267.5C 88.0137,270.558 87.1803,271.225 83,269.5C 79.9679,269.767 77.3013,270.767 75,272.5C 74.6924,271.692 74.1924,271.025 73.5,270.5C 71.854,273.674 71.354,277.007 72,280.5C 72.3333,280.167 72.6667,279.833 73,279.5C 74.6686,281.353 74.8353,283.353 73.5,285.5C 71.0885,282.884 68.7552,282.884 66.5,285.5C 66.7821,278.959 67.7821,272.626 69.5,266.5C 70.1174,266.389 70.6174,266.056 71,265.5C 71.5833,261.168 72.0833,256.835 72.5,252.5C 73.7767,239.978 75.7767,227.645 78.5,215.5C 80.2227,213.22 80.8893,210.553 80.5,207.5C 80.9118,198.446 82.5785,189.779 85.5,181.5 Z"/></g>
<g><path style="opacity:1" fill="#eba1bd" d="M 201.5,196.5 C 204.285,196.933 206.619,198.266 208.5,200.5C 210.996,197.808 213.33,197.975 215.5,201C 215.167,201.333 214.833,201.667 214.5,202C 216.748,204.044 218.748,203.877 220.5,201.5C 223.002,203.414 225.002,205.747 226.5,208.5C 227.527,209.791 228.527,209.791 229.5,208.5C 229.449,210.57 230.115,212.403 231.5,214C 231.333,214.5 231.167,215 231,215.5C 229.829,213.384 228.329,212.718 226.5,213.5C 229.51,215.392 229.843,217.392 227.5,219.5C 224.788,217.477 221.788,215.977 218.5,215C 219.623,213.956 220.956,213.29 222.5,213C 220.683,211.2 219.516,209.034 219,206.5C 218.085,207.328 217.419,208.328 217,209.5C 215.042,208.048 213.042,207.715 211,208.5C 209.192,206.442 207.025,206.108 204.5,207.5C 204.5,208.833 204.5,210.167 204.5,211.5C 202.738,211.357 201.071,211.691 199.5,212.5C 199.704,211.471 199.204,210.471 198,209.5C 197.097,210.701 195.931,211.535 194.5,212C 195.451,212.718 195.617,213.551 195,214.5C 193.731,213.095 193.231,211.429 193.5,209.5C 189.406,209.933 187.406,212.266 187.5,216.5C 189.167,216.5 190.833,216.5 192.5,216.5C 192.636,220.338 194.303,222.838 197.5,224C 195.688,222.373 195.521,220.873 197,219.5C 199.553,220.223 201.72,221.556 203.5,223.5C 203.833,222.833 204.167,222.167 204.5,221.5C 202.78,219.378 201.946,217.044 202,214.5C 204.527,215.726 206.694,217.392 208.5,219.5C 208.749,218.418 208.915,217.085 209,215.5C 209.85,216.424 210.85,216.424 212,215.5C 213.147,218.352 214.647,221.352 216.5,224.5C 214.856,224.714 213.356,224.38 212,223.5C 211.383,224.449 211.549,225.282 212.5,226C 211.892,226.87 211.059,227.37 210,227.5C 208.632,226.297 207.132,225.297 205.5,224.5C 204.167,224.833 202.833,225.167 201.5,225.5C 203.095,227.452 203.595,229.452 203,231.5C 203.689,230.643 204.522,229.977 205.5,229.5C 208.508,230.018 210.841,231.518 212.5,234C 210.307,235.064 208.307,236.398 206.5,238C 207.784,239.297 207.617,240.464 206,241.5C 205.081,238.356 203.248,237.356 200.5,238.5C 201.32,240.111 202.654,240.778 204.5,240.5C 204.34,242.199 204.506,243.866 205,245.5C 206.06,245.746 207.227,245.746 208.5,245.5C 209.251,246.376 209.751,247.376 210,248.5C 211.067,247.809 212.234,247.309 213.5,247C 216.644,245.257 217.144,242.757 215,239.5C 214.667,240.167 214.333,240.833 214,241.5C 212.505,239.137 213.338,237.47 216.5,236.5C 217.429,235.311 217.762,233.978 217.5,232.5C 219.226,232.185 220.893,232.019 222.5,232C 223.112,233.303 223.446,234.47 223.5,235.5C 224.48,234.019 225.647,232.685 227,231.5C 227.507,232.996 227.007,234.163 225.5,235C 226.571,235.852 227.571,236.685 228.5,237.5C 227.016,238.473 226.516,239.807 227,241.5C 238.562,254.515 245.729,269.515 248.5,286.5C 248.319,289.397 248.652,292.23 249.5,295C 249.05,296.285 248.383,297.452 247.5,298.5C 247.998,302.425 247.998,306.425 247.5,310.5C 245.5,310.5 243.5,310.5 241.5,310.5C 206.104,307.747 170.771,304.747 135.5,301.5C 140.313,280.535 149.813,262.201 164,246.5C 167.387,243.447 171.053,240.78 175,238.5C 175.827,237.338 176.66,236.171 177.5,235C 177.361,233.699 176.695,232.866 175.5,232.5C 176.574,230.784 178.241,229.784 180.5,229.5C 181.681,227.865 181.681,226.198 180.5,224.5C 181.167,224.167 181.833,223.833 182.5,223.5C 180.728,219.57 179.562,219.903 179,224.5C 178.692,223.692 178.192,223.025 177.5,222.5C 176.03,228.959 175.363,228.626 175.5,221.5C 179.882,220.802 180.882,218.802 178.5,215.5C 180.145,213.075 181.311,210.408 182,207.5C 182.414,207.043 182.914,206.709 183.5,206.5C 184.524,207.853 185.857,208.52 187.5,208.5C 187.714,206.856 187.38,205.356 186.5,204C 188.577,203.808 190.577,203.308 192.5,202.5C 189.219,200.412 189.052,198.412 192,196.5C 192.216,198.384 192.883,200.051 194,201.5C 196.397,199.59 198.897,197.923 201.5,196.5 Z"/></g>
<g><path style="opacity:1" fill="#9fb08b" d="M 80.5,207.5 C 80.8893,210.553 80.2227,213.22 78.5,215.5C 78.67,214.178 78.3366,213.011 77.5,212C 78.7811,210.591 79.7811,209.091 80.5,207.5 Z"/></g>
<g><path style="opacity:1" fill="#e7eae5" d="M 46.5,242.5 C 51.6681,243.057 56.5015,244.723 61,247.5C 65.0488,253.25 64.2155,258.083 58.5,262C 51.4339,264.052 44.4339,263.718 37.5,261C 33.2717,255.716 33.605,250.716 38.5,246C 41.1218,244.525 43.7884,243.359 46.5,242.5 Z"/></g>
<g><path style="opacity:1" fill="#f5c3d9" d="M 267.5,263.5 C 265.61,263.297 264.11,263.963 263,265.5C 262.071,269.244 262.571,272.744 264.5,276C 271.035,279.002 277.535,278.835 284,275.5C 286.565,272.674 287.065,269.507 285.5,266C 286.044,264.415 286.711,262.915 287.5,261.5C 289.722,261.178 291.556,261.845 293,263.5C 295.5,263.457 298,263.123 300.5,262.5C 300.5,263.5 300.5,264.5 300.5,265.5C 299.325,265.281 298.325,265.614 297.5,266.5C 297.833,266.833 298.167,267.167 298.5,267.5C 301.317,266.905 303.65,265.572 305.5,263.5C 308.351,265.142 309.017,264.475 307.5,261.5C 307.808,260.692 308.308,260.025 309,259.5C 309.464,261.7 309.964,264.033 310.5,266.5C 308.076,266.192 305.743,266.526 303.5,267.5C 304.751,268.631 305.751,269.964 306.5,271.5C 305.026,274.079 305.693,276.079 308.5,277.5C 311.603,274.419 313.436,275.086 314,279.5C 314.278,278.584 314.778,277.918 315.5,277.5C 313.515,289.185 311.349,300.852 309,312.5C 307.587,314.414 305.753,315.747 303.5,316.5C 282.755,314.13 262.088,312.13 241.5,310.5C 243.5,310.5 245.5,310.5 247.5,310.5C 247.998,306.425 247.998,302.425 247.5,298.5C 248.383,297.452 249.05,296.285 249.5,295C 248.652,292.23 248.319,289.397 248.5,286.5C 248.983,284.13 250.149,283.463 252,284.5C 254.521,281.652 254.854,278.652 253,275.5C 249.799,275.766 249.633,274.6 252.5,272C 251.484,271.481 250.818,270.647 250.5,269.5C 251.054,267.372 252.387,265.872 254.5,265C 253.572,264.612 252.905,263.945 252.5,263C 253.368,261.135 253.034,259.302 251.5,257.5C 249.922,256.928 248.422,256.594 247,256.5C 246.333,255.5 246.333,254.5 247,253.5C 248.693,252.816 250.193,251.816 251.5,250.5C 254.624,252.094 257.124,251.428 259,248.5C 261.042,248.818 263.209,248.985 265.5,249C 264.298,251.804 262.298,253.804 259.5,255C 265.954,255.913 265.954,257.246 259.5,259C 260.854,260.294 262.188,260.46 263.5,259.5C 265.2,260.61 266.534,261.943 267.5,263.5 Z"/></g>
<g><path style="opacity:1" fill="#eba1bd" d="M 132.5,236.5 C 132.863,238.777 133.863,239.444 135.5,238.5C 135.833,239.833 136.167,241.167 136.5,242.5C 133.714,251.367 131.214,260.367 129,269.5C 122.538,272.768 116.872,271.768 112,266.5C 110.729,262.834 111.896,260.334 115.5,259C 119.152,258.501 122.818,258.335 126.5,258.5C 128.313,254.789 129.48,250.789 130,246.5C 130.465,245.069 131.299,243.903 132.5,243C 125.363,239.52 117.863,237.02 110,235.5C 109.167,235.833 108.333,236.167 107.5,236.5C 103.131,246.103 100.297,256.103 99,266.5C 94.5009,269.278 90.0009,269.611 85.5,267.5C 84.2858,266.374 83.2858,265.041 82.5,263.5C 80.8137,260.39 81.4804,257.89 84.5,256C 87.8168,255.502 91.1501,255.335 94.5,255.5C 98.0512,249.015 100.551,242.015 102,234.5C 102.785,232.714 103.951,231.214 105.5,230C 114.836,230.887 123.836,233.054 132.5,236.5 Z"/></g>
<g><path style="opacity:1" fill="#eca2be" d="M 287.5,261.5 C 286.711,262.915 286.044,264.415 285.5,266C 287.065,269.507 286.565,272.674 284,275.5C 277.535,278.835 271.035,279.002 264.5,276C 262.571,272.744 262.071,269.244 263,265.5C 264.11,263.963 265.61,263.297 267.5,263.5C 271.881,262.536 276.215,262.202 280.5,262.5C 283.803,255.374 287.303,248.374 291,241.5C 292.584,240.139 294.418,239.472 296.5,239.5C 296.421,240.93 296.754,242.264 297.5,243.5C 294.199,247.636 292.033,252.303 291,257.5C 288.929,258.103 287.762,259.436 287.5,261.5 Z"/></g>
<g><path style="opacity:1" fill="#f5c1d7" d="M 168.5,226.5 C 171.453,227.787 173.786,229.787 175.5,232.5C 176.695,232.866 177.361,233.699 177.5,235C 176.66,236.171 175.827,237.338 175,238.5C 171.053,240.78 167.387,243.447 164,246.5C 149.813,262.201 140.313,280.535 135.5,301.5C 112,299.465 88.6668,297.131 65.5,294.5C 65.19,291.287 65.5233,288.287 66.5,285.5C 68.7552,282.884 71.0885,282.884 73.5,285.5C 74.8353,283.353 74.6686,281.353 73,279.5C 72.6667,279.833 72.3333,280.167 72,280.5C 71.354,277.007 71.854,273.674 73.5,270.5C 74.1924,271.025 74.6924,271.692 75,272.5C 77.3013,270.767 79.9679,269.767 83,269.5C 87.1803,271.225 88.0137,270.558 85.5,267.5C 90.0009,269.611 94.5009,269.278 99,266.5C 100.297,256.103 103.131,246.103 107.5,236.5C 108.333,236.167 109.167,235.833 110,235.5C 117.863,237.02 125.363,239.52 132.5,243C 131.299,243.903 130.465,245.069 130,246.5C 129.48,250.789 128.313,254.789 126.5,258.5C 122.818,258.335 119.152,258.501 115.5,259C 111.896,260.334 110.729,262.834 112,266.5C 116.872,271.768 122.538,272.768 129,269.5C 131.214,260.367 133.714,251.367 136.5,242.5C 136.167,241.167 135.833,239.833 135.5,238.5C 133.863,239.444 132.863,238.777 132.5,236.5C 134.308,236.491 135.975,236.991 137.5,238C 141.864,244.433 143.531,243.933 142.5,236.5C 143.5,236.5 144.5,236.5 145.5,236.5C 145.281,235.325 145.614,234.325 146.5,233.5C 147.578,235.475 147.245,237.308 145.5,239C 147.586,239.557 148.919,238.724 149.5,236.5C 149.02,234.051 148.02,231.885 146.5,230C 148.387,229.837 149.887,230.671 151,232.5C 155.787,231.255 158.454,233.255 159,238.5C 160.016,237.366 160.683,237.699 161,239.5C 162.39,235.719 164.057,232.053 166,228.5C 166.333,229.5 166.667,230.5 167,231.5C 167.465,230.069 168.299,228.903 169.5,228C 168.944,227.617 168.611,227.117 168.5,226.5 Z"/></g>
<g><path style="opacity:1" fill="#b4b59e" d="M 72.5,252.5 C 72.0833,256.835 71.5833,261.168 71,265.5C 70.6174,266.056 70.1174,266.389 69.5,266.5C 69.8556,261.569 70.8556,256.902 72.5,252.5 Z"/></g>
<g><path style="opacity:1" fill="#e4e7ea" d="M 318.5,341.5 C 320.288,341.785 321.955,341.452 323.5,340.5C 320.928,337.69 318.594,334.69 316.5,331.5C 318.144,331.714 319.644,331.38 321,330.5C 322.494,323.21 323.66,315.877 324.5,308.5C 325.222,308.082 325.722,307.416 326,306.5C 339.896,225.508 354.396,144.508 369.5,63.5C 371.493,65.6655 373.327,67.9989 375,70.5C 375.065,79.7692 373.732,88.7692 371,97.5C 364.005,139.164 357.005,180.831 350,222.5C 343.117,256.487 337.117,290.821 332,325.5C 330.482,330.795 329.149,336.128 328,341.5C 324.731,342.818 321.565,342.818 318.5,341.5 Z"/></g>
<g><path style="opacity:1" fill="#e1e7df" d="M 27.5,284.5 C 29.8333,284.5 32.1667,284.5 34.5,284.5C 35.3974,291.536 32.8974,293.203 27,289.5C 26.3603,287.735 26.5269,286.068 27.5,284.5 Z"/></g>
<g><path style="opacity:1" fill="#dfe6dc" d="M 51.5,285.5 C 55.9346,285.752 57.268,287.919 55.5,292C 52.6529,292.944 50.1529,292.444 48,290.5C 47.3333,289.5 47.3333,288.5 48,287.5C 49.3024,286.915 50.469,286.249 51.5,285.5 Z"/></g>
<g><path style="opacity:1" fill="#d4e1d1" d="M 39.5,284.5 C 41.1667,284.5 42.8333,284.5 44.5,284.5C 46.4851,287.86 45.6518,290.193 42,291.5C 38.4947,290.152 37.6614,287.819 39.5,284.5 Z"/></g>
<g><path style="opacity:1" fill="#aeb8c0" d="M 63.5,301.5 C 67.2036,303.091 71.2036,303.924 75.5,304C 154.884,310.769 233.884,317.602 312.5,324.5C 313.772,324.43 314.938,324.097 316,323.5C 316.567,320.832 317.067,318.166 317.5,315.5C 318.165,313.631 318.831,311.631 319.5,309.5C 321.059,308.926 322.559,308.26 324,307.5C 324.399,307.728 324.565,308.062 324.5,308.5C 323.66,315.877 322.494,323.21 321,330.5C 319.644,331.38 318.144,331.714 316.5,331.5C 253.406,326.512 189.906,320.846 126,314.5C 125.228,314.645 124.561,314.978 124,315.5C 119.979,313.469 115.812,313.136 111.5,314.5C 105.453,313.791 99.4532,312.791 93.5,311.5C 91.6929,311.972 89.8596,312.306 88,312.5C 68.6378,309.505 49.1378,307.672 29.5,307C 29,306.5 28.5,306 28,305.5C 27.4795,307.289 27.8129,308.956 29,310.5C 31.1792,312.348 33.0126,314.515 34.5,317C 37.5131,317.502 40.5131,318.002 43.5,318.5C 42.8898,321.342 43.5564,324.009 45.5,326.5C 41.3142,326.567 37.4809,325.567 34,323.5C 33.1627,325.007 31.9961,325.507 30.5,325C 27.9045,322.203 25.5711,319.203 23.5,316C 23.8333,315.667 24.1667,315.333 24.5,315C 21.5867,311.438 18.5867,307.938 15.5,304.5C 14.4808,302.54 14.4808,300.54 15.5,298.5C 16.9848,297.065 18.3181,297.232 19.5,299C 34.2376,300.505 48.9042,301.338 63.5,301.5 Z"/></g>
<g><path style="opacity:1" fill="#e6e8eb" d="M 316.5,331.5 C 318.594,334.69 320.928,337.69 323.5,340.5C 321.955,341.452 320.288,341.785 318.5,341.5C 279.242,338.734 240.076,335.401 201,331.5C 200.228,331.645 199.561,331.978 199,332.5C 195.356,330.979 191.523,330.145 187.5,330C 163.581,327.403 139.581,325.736 115.5,325C 113.901,323.496 112.068,323.33 110,324.5C 93.289,322.563 76.6224,320.563 60,318.5C 54.5161,318.379 49.0161,318.379 43.5,318.5C 40.5131,318.002 37.5131,317.502 34.5,317C 33.0126,314.515 31.1792,312.348 29,310.5C 27.8129,308.956 27.4795,307.289 28,305.5C 28.5,306 29,306.5 29.5,307C 49.1378,307.672 68.6378,309.505 88,312.5C 89.8596,312.306 91.6929,311.972 93.5,311.5C 99.4532,312.791 105.453,313.791 111.5,314.5C 115.812,313.136 119.979,313.469 124,315.5C 124.561,314.978 125.228,314.645 126,314.5C 189.906,320.846 253.406,326.512 316.5,331.5 Z"/></g>
</svg>
